<mxfile host="app.diagrams.net" agent="Mozilla/5.0 (Windows NT 10.0; Win64; x64) AppleWebKit/537.36 (KHTML, like Gecko) Chrome/129.0.0.0 Safari/537.36" version="24.8.0">
  <diagram name="Страница — 1" id="SsfZILD-BAdxKaIAcmjQ">
    <mxGraphModel dx="722" dy="2166" grid="1" gridSize="10" guides="1" tooltips="1" connect="1" arrows="1" fold="1" page="1" pageScale="1" pageWidth="827" pageHeight="1169" math="0" shadow="0">
      <root>
        <mxCell id="0" />
        <mxCell id="1" parent="0" />
        <mxCell id="9ankYJwI3CIyJwFgM97E-1" value="" style="rounded=0;whiteSpace=wrap;html=1;" parent="1" vertex="1">
          <mxGeometry y="30" width="1130" height="800" as="geometry" />
        </mxCell>
        <mxCell id="9ankYJwI3CIyJwFgM97E-48" value="" style="rounded=0;whiteSpace=wrap;html=1;" parent="1" vertex="1">
          <mxGeometry x="190" y="30" width="920" height="660" as="geometry" />
        </mxCell>
        <mxCell id="9ankYJwI3CIyJwFgM97E-10" value="начальная страница" style="rounded=0;whiteSpace=wrap;html=1;" parent="1" vertex="1">
          <mxGeometry width="120" height="30" as="geometry" />
        </mxCell>
        <mxCell id="9ankYJwI3CIyJwFgM97E-16" value="cura autodesk&lt;div&gt;prusa slicer&lt;br&gt;&lt;/div&gt;" style="rounded=0;whiteSpace=wrap;html=1;" parent="1" vertex="1">
          <mxGeometry x="190" y="350" width="130" height="40" as="geometry" />
        </mxCell>
        <mxCell id="9ankYJwI3CIyJwFgM97E-21" value="&lt;div&gt;&lt;span style=&quot;background-color: initial;&quot;&gt;Многоструйное моделирование (MJM)&lt;/span&gt;&lt;br&gt;&lt;/div&gt;" style="rounded=0;whiteSpace=wrap;html=1;" parent="1" vertex="1">
          <mxGeometry x="360" y="460" width="170" height="40" as="geometry" />
        </mxCell>
        <mxCell id="9ankYJwI3CIyJwFgM97E-22" value="&lt;div&gt;&lt;span style=&quot;background-color: initial;&quot;&gt;Прототипирование методом наплавления (FDM)&lt;/span&gt;&lt;br&gt;&lt;/div&gt;" style="rounded=0;whiteSpace=wrap;html=1;" parent="1" vertex="1">
          <mxGeometry x="190" y="420" width="170" height="40" as="geometry" />
        </mxCell>
        <mxCell id="9ankYJwI3CIyJwFgM97E-23" value="&lt;div&gt;&lt;span style=&quot;background-color: initial;&quot;&gt;Лазерная стереолитография (SLA)&lt;/span&gt;&lt;br&gt;&lt;/div&gt;" style="rounded=0;whiteSpace=wrap;html=1;" parent="1" vertex="1">
          <mxGeometry x="360" y="420" width="170" height="40" as="geometry" />
        </mxCell>
        <mxCell id="9ankYJwI3CIyJwFgM97E-24" value="&lt;div&gt;&lt;span style=&quot;background-color: initial;&quot;&gt;Селективное лазерное спекание (SLS)&lt;/span&gt;&lt;br&gt;&lt;/div&gt;" style="rounded=0;whiteSpace=wrap;html=1;" parent="1" vertex="1">
          <mxGeometry x="190" y="500" width="170" height="40" as="geometry" />
        </mxCell>
        <mxCell id="9ankYJwI3CIyJwFgM97E-25" value="&lt;div&gt;&lt;span style=&quot;background-color: initial;&quot;&gt;Электронно-лучевая плавка (EBM)&lt;/span&gt;&lt;br&gt;&lt;/div&gt;" style="rounded=0;whiteSpace=wrap;html=1;" parent="1" vertex="1">
          <mxGeometry x="190" y="460" width="170" height="40" as="geometry" />
        </mxCell>
        <mxCell id="9ankYJwI3CIyJwFgM97E-26" value="&lt;div&gt;&lt;span style=&quot;background-color: initial;&quot;&gt;Производство моделей с использованием ламинирования (LOM)&lt;/span&gt;&lt;br&gt;&lt;/div&gt;" style="rounded=0;whiteSpace=wrap;html=1;" parent="1" vertex="1">
          <mxGeometry x="360" y="500" width="170" height="40" as="geometry" />
        </mxCell>
        <mxCell id="9ankYJwI3CIyJwFgM97E-29" value="кинематики" style="rounded=0;whiteSpace=wrap;html=1;" parent="1" vertex="1">
          <mxGeometry x="1241" y="135" width="230" height="70" as="geometry" />
        </mxCell>
        <mxCell id="9ankYJwI3CIyJwFgM97E-30" value="CoreXY" style="rounded=0;whiteSpace=wrap;html=1;" parent="1" vertex="1">
          <mxGeometry x="1241" y="205" width="230" height="40" as="geometry" />
        </mxCell>
        <mxCell id="9ankYJwI3CIyJwFgM97E-31" value="Дельта" style="rounded=0;whiteSpace=wrap;html=1;" parent="1" vertex="1">
          <mxGeometry x="1241" y="605" width="230" height="40" as="geometry" />
        </mxCell>
        <mxCell id="9ankYJwI3CIyJwFgM97E-32" value="Makerbot" style="rounded=0;whiteSpace=wrap;html=1;" parent="1" vertex="1">
          <mxGeometry x="1241" y="245" width="230" height="40" as="geometry" />
        </mxCell>
        <mxCell id="9ankYJwI3CIyJwFgM97E-33" value="Ultimaker" style="rounded=0;whiteSpace=wrap;html=1;" parent="1" vertex="1">
          <mxGeometry x="1241" y="285" width="230" height="40" as="geometry" />
        </mxCell>
        <mxCell id="9ankYJwI3CIyJwFgM97E-34" value="Selective Compliance Assembly Robot Arm (SCARA)" style="rounded=0;whiteSpace=wrap;html=1;" parent="1" vertex="1">
          <mxGeometry x="1241" y="365" width="230" height="40" as="geometry" />
        </mxCell>
        <mxCell id="9ankYJwI3CIyJwFgM97E-35" value="Полярная кинематика" style="rounded=0;whiteSpace=wrap;html=1;" parent="1" vertex="1">
          <mxGeometry x="1241" y="405" width="230" height="40" as="geometry" />
        </mxCell>
        <mxCell id="9ankYJwI3CIyJwFgM97E-36" value="Портальная кинематика" style="rounded=0;whiteSpace=wrap;html=1;" parent="1" vertex="1">
          <mxGeometry x="1241" y="445" width="230" height="40" as="geometry" />
        </mxCell>
        <mxCell id="9ankYJwI3CIyJwFgM97E-37" value="Гибридная кинематика" style="rounded=0;whiteSpace=wrap;html=1;" parent="1" vertex="1">
          <mxGeometry x="1241" y="685" width="230" height="40" as="geometry" />
        </mxCell>
        <mxCell id="9ankYJwI3CIyJwFgM97E-38" value="Кинематика XY/2" style="rounded=0;whiteSpace=wrap;html=1;" parent="1" vertex="1">
          <mxGeometry x="1241" y="485" width="230" height="40" as="geometry" />
        </mxCell>
        <mxCell id="9ankYJwI3CIyJwFgM97E-40" value="Пятиосевые принтеры" style="rounded=0;whiteSpace=wrap;html=1;" parent="1" vertex="1">
          <mxGeometry x="1241" y="525" width="230" height="40" as="geometry" />
        </mxCell>
        <mxCell id="9ankYJwI3CIyJwFgM97E-41" value="Конвейерный тип" style="rounded=0;whiteSpace=wrap;html=1;" parent="1" vertex="1">
          <mxGeometry x="1241" y="565" width="230" height="40" as="geometry" />
        </mxCell>
        <mxCell id="9ankYJwI3CIyJwFgM97E-42" value="Prusa (дрыгостол)" style="rounded=0;whiteSpace=wrap;html=1;" parent="1" vertex="1">
          <mxGeometry x="1241" y="325" width="230" height="40" as="geometry" />
        </mxCell>
        <mxCell id="9ankYJwI3CIyJwFgM97E-43" value="Консольный принтер" style="rounded=0;whiteSpace=wrap;html=1;" parent="1" vertex="1">
          <mxGeometry x="1241" y="645" width="230" height="40" as="geometry" />
        </mxCell>
        <mxCell id="9ankYJwI3CIyJwFgM97E-44" value="" style="rounded=0;whiteSpace=wrap;html=1;" parent="1" vertex="1">
          <mxGeometry y="710" width="1130" height="120" as="geometry" />
        </mxCell>
        <mxCell id="9ankYJwI3CIyJwFgM97E-47" value="Автор сайта: Магдесян Кирилл Карапетович" style="rounded=0;whiteSpace=wrap;html=1;" parent="1" vertex="1">
          <mxGeometry y="790" width="261" height="40" as="geometry" />
        </mxCell>
        <mxCell id="HS7s4-bP32yvNJQ-ZWB6-2" value="" style="rounded=0;whiteSpace=wrap;html=1;" parent="1" vertex="1">
          <mxGeometry y="30" width="190" height="680" as="geometry" />
        </mxCell>
        <mxCell id="9ankYJwI3CIyJwFgM97E-7" value="Программы для 3D моделирования" style="rounded=0;whiteSpace=wrap;html=1;" parent="1" vertex="1">
          <mxGeometry y="210" width="190" height="30" as="geometry" />
        </mxCell>
        <mxCell id="9ankYJwI3CIyJwFgM97E-6" value="&lt;div&gt;&lt;span style=&quot;background-color: initial;&quot;&gt;(выпадающее меню&lt;/span&gt;&lt;span style=&quot;background-color: initial;&quot;&gt;&amp;nbsp;&lt;/span&gt;&lt;span style=&quot;background-color: initial;&quot;&gt;вправо&lt;/span&gt;&lt;span style=&quot;background-color: initial;&quot;&gt;)&lt;/span&gt;&lt;/div&gt;&lt;div&gt;3Ds Max&lt;/div&gt;" style="rounded=0;whiteSpace=wrap;html=1;" parent="1" vertex="1">
          <mxGeometry y="240" width="190" height="40" as="geometry" />
        </mxCell>
        <mxCell id="9ankYJwI3CIyJwFgM97E-8" value="&lt;div&gt;с чего начать&lt;/div&gt;модификаторы&lt;div&gt;плагины&lt;/div&gt;&lt;div&gt;анимация&lt;/div&gt;" style="rounded=0;whiteSpace=wrap;html=1;" parent="1" vertex="1">
          <mxGeometry x="190" y="280" width="150" height="80" as="geometry" />
        </mxCell>
        <mxCell id="9ankYJwI3CIyJwFgM97E-12" value="&lt;div&gt;&lt;span style=&quot;background-color: initial;&quot;&gt;(выпадающее меню&lt;/span&gt;&lt;span style=&quot;background-color: initial;&quot;&gt;&amp;nbsp;&lt;/span&gt;&lt;span style=&quot;background-color: initial;&quot;&gt;вправо&lt;/span&gt;&lt;span style=&quot;background-color: initial;&quot;&gt;)&lt;/span&gt;&lt;/div&gt;&lt;div&gt;blender&lt;/div&gt;" style="rounded=0;whiteSpace=wrap;html=1;" parent="1" vertex="1">
          <mxGeometry y="280" width="190" height="40" as="geometry" />
        </mxCell>
        <mxCell id="9ankYJwI3CIyJwFgM97E-13" value="&lt;div&gt;с чего начать&lt;/div&gt;модификаторы&lt;div&gt;плагины&lt;/div&gt;&lt;div&gt;анимация&lt;/div&gt;" style="rounded=0;whiteSpace=wrap;html=1;" parent="1" vertex="1">
          <mxGeometry x="190" y="240" width="150" height="80" as="geometry" />
        </mxCell>
        <mxCell id="9ankYJwI3CIyJwFgM97E-3" value="(иконка)" style="rounded=1;whiteSpace=wrap;html=1;direction=south;arcSize=25;" parent="1" vertex="1">
          <mxGeometry x="1" y="30" width="80" height="80" as="geometry" />
        </mxCell>
        <mxCell id="9ankYJwI3CIyJwFgM97E-46" value="3D helper" style="rounded=0;whiteSpace=wrap;html=1;" parent="1" vertex="1">
          <mxGeometry x="81" y="30" width="109" height="30" as="geometry" />
        </mxCell>
        <mxCell id="9ankYJwI3CIyJwFgM97E-14" value="3D печать" style="rounded=0;whiteSpace=wrap;html=1;" parent="1" vertex="1">
          <mxGeometry y="320" width="190" height="30" as="geometry" />
        </mxCell>
        <mxCell id="9ankYJwI3CIyJwFgM97E-15" value="&lt;div&gt;(выпадающее меню вправо)&lt;span style=&quot;background-color: initial;&quot;&gt;&lt;br&gt;&lt;/span&gt;&lt;/div&gt;&lt;div&gt;&lt;span style=&quot;background-color: initial;&quot;&gt;программы&lt;/span&gt;&lt;br&gt;&lt;/div&gt;" style="rounded=0;whiteSpace=wrap;html=1;" parent="1" vertex="1">
          <mxGeometry y="350" width="190" height="40" as="geometry" />
        </mxCell>
        <mxCell id="9ankYJwI3CIyJwFgM97E-17" value="&lt;div&gt;&lt;span style=&quot;background-color: initial;&quot;&gt;3D принтеры&lt;/span&gt;&lt;br&gt;&lt;/div&gt;" style="rounded=0;whiteSpace=wrap;html=1;" parent="1" vertex="1">
          <mxGeometry x="1" y="390" width="189" height="30" as="geometry" />
        </mxCell>
        <mxCell id="9ankYJwI3CIyJwFgM97E-18" value="&lt;div&gt;(выпадающее меню вправо)&lt;span style=&quot;background-color: initial;&quot;&gt;&lt;br&gt;&lt;/span&gt;&lt;/div&gt;&lt;div&gt;&lt;span style=&quot;background-color: initial;&quot;&gt;технологии 3D печати&lt;/span&gt;&lt;/div&gt;" style="rounded=0;whiteSpace=wrap;html=1;" parent="1" vertex="1">
          <mxGeometry y="420" width="190" height="40" as="geometry" />
        </mxCell>
        <mxCell id="o8jV1s6NZDtfLZ1RyF8o-1" value="" style="rounded=0;whiteSpace=wrap;html=1;" vertex="1" parent="1">
          <mxGeometry x="200" y="30" width="30" height="30" as="geometry" />
        </mxCell>
        <mxCell id="o8jV1s6NZDtfLZ1RyF8o-3" style="rounded=0;orthogonalLoop=1;jettySize=auto;html=1;" edge="1" parent="1" source="o8jV1s6NZDtfLZ1RyF8o-2" target="o8jV1s6NZDtfLZ1RyF8o-1">
          <mxGeometry relative="1" as="geometry" />
        </mxCell>
        <mxCell id="o8jV1s6NZDtfLZ1RyF8o-2" value="(кнопка раскрытия sidebar)" style="rounded=0;whiteSpace=wrap;html=1;" vertex="1" parent="1">
          <mxGeometry x="141" y="-170" width="120" height="60" as="geometry" />
        </mxCell>
      </root>
    </mxGraphModel>
  </diagram>
</mxfile>
